<svg width="349" height="173" viewBox="0 0 349 173" fill="none" xmlns="http://www.w3.org/2000/svg">
<path d="M41.8213 46.5175C57.8733 46.5175 72.6876 48.1997 88.0824 48.1997C100.158 48.1997 111.123 48.2943 122.568 51.5642C135.6 55.2877 148.583 54.9286 162.1 54.9286C176.284 54.9286 189.993 58.2931 204.249 58.2931C210.859 58.2931 216.415 58.7294 222.754 59.8818C227.604 60.7637 234.108 60.0164 238.641 62.0313C242.404 63.7035 247.637 65.5496 251.351 66.6107C256.076 67.9607 260.724 71.2139 265.557 71.7508C279.163 73.2627 307.612 86.7276 307.612 103.713C307.612 114.637 305.793 119.866 299.201 128.105C291.926 137.199 268.617 127.245 260.604 124.741C250.433 121.563 238.888 118.853 228.548 118.853C211.155 118.853 194.379 115.489 177.24 115.489C147.119 115.489 115.729 112.124 85.559 112.124C75.1221 112.124 65.1517 110.105 56.9613 105.769C47.7907 100.914 46.868 90.3285 46.868 80.1619" stroke="#2DDDE8" stroke-width="80" stroke-linecap="round"/>
<path d="M18.2702 115.489C28.1172 116.719 18.0433 140.204 27.5224 142.311C39.7533 145.029 50.8204 141.244 62.008 147.825C72.5259 154.012 49.6526 150.815 45.1857 150.815C39.2872 150.815 27.2791 152.976 22.4758 149.133C16.2751 144.173 16.588 141.018 16.588 133.245C16.588 129.386 18.2739 118.855 14.9058 117.171" stroke="#2DDDE8" stroke-width="10" stroke-linecap="round"/>
<path d="M31.7279 137.357C29.0911 137.357 27.7856 137.884 26.6813 135.675" stroke="#2DDDE8" stroke-width="10" stroke-linecap="round"/>
<path d="M280.697 39.7886C272.71 39.7886 298.974 35.4494 304.622 41.097C308.334 44.8097 313.114 46.9725 316.864 50.7231C319.368 53.2267 321.87 58.6931 324.434 59.9753" stroke="#2DDDE8" stroke-width="10" stroke-linecap="round"/>
<path d="M102.68 18.4578C139.98 18.4578 181.383 13.7982 217.912 21.9157C226.097 23.7346 234.662 23.5677 243.052 25.0932C252.697 26.8468 262.55 28.5511 272.584 28.5511C288.285 28.5511 308.019 33.215 320.527 42.9434C332.529 52.2781 338.191 69.6159 338.191 84.9055C338.191 93.5273 343.237 101.684 343.237 110.139C343.237 119.391 343.237 128.643 343.237 137.895C343.237 142.749 337.018 151.591 333.518 155.092C327.035 161.575 320.994 161.655 313.799 165.652C305.835 170.076 287.795 166.493 278.472 166.493C268.388 166.493 258.355 166.898 249.033 162.755C234.33 156.22 218.008 156.4 201.931 156.4C157.32 156.4 112.049 156.4 67.3531 156.4C38.6307 156.4 8.47541 145.89 8.47541 111.821C8.47541 96.4038 5.11096 81.2449 5.11096 65.56C5.11096 57.4395 4.05223 49.5704 8.47541 42.3827C11.4842 37.4935 13.2317 31.9645 16.0454 26.9623C18.0428 23.4115 21.6868 20.8983 23.6154 17.5232C26.2859 12.8498 40.7954 6.68222 46.3254 6.68222C53.4508 6.68222 61.4129 5 69.0354 5C76.68 5 83.3737 8.01522 90.1566 9.95321C96.3427 11.7207 103.67 12.2239 109.409 15.0933" stroke="#2DDDE8" stroke-width="10" stroke-linecap="round"/>
<path d="M21 49H44.5511" stroke="#F32929" stroke-width="10" stroke-linecap="round"/>
<path d="M34.4579 50.6822C34.4579 73.9556 44.5512 95.5063 44.5512 117.971" stroke="#F32929" stroke-width="10" stroke-linecap="round"/>
<path d="M26.0468 126.382H63.0556" stroke="#F32929" stroke-width="10" stroke-linecap="round"/>
<path d="M64.7378 64.14V70.8689" stroke="#F32929" stroke-width="10" stroke-linecap="round"/>
<path d="M78.1956 89.3733C78.1956 101.273 78.1956 113.174 78.1956 125.074C78.1956 126.382 76.5866 137.993 74.9246 132.176C73.8984 128.585 74.8312 123.346 74.8312 119.653C74.8312 111.026 76.1886 101.779 84.9245 97.4106C97.9111 90.9173 96.7671 108.335 99.2234 116.195C100.387 119.919 98.909 124.623 100.438 128.064C103.46 134.863 101.841 117.14 101.653 114.887C101.243 109.966 96.319 89.5602 106.887 89.5602C116.565 89.5602 120.251 96.5664 120.251 104.513C120.251 117.306 121.933 131.416 121.933 143.204" stroke="#F32929" stroke-width="10" stroke-linecap="round"/>
<path d="M133.709 50.6822C133.709 66.9017 140.254 81.3988 143.709 96.9433C145.214 103.715 146.744 110.742 149.69 117.223C152.412 123.212 157.26 142.025 157.26 135.447C157.26 123.895 150.531 112.248 150.531 99.8404C150.531 89.9154 150.625 89.3733 160.624 89.3733C174.143 89.3733 179.201 108.093 182.493 117.971" stroke="#F32929" stroke-width="10" stroke-linecap="round"/>
<path d="M189.222 96.1022C193.954 96.6936 201.336 111.666 204.362 115.448C211.574 124.462 225.406 126.099 226.231 111.242C226.908 99.0513 232.672 87.9075 216.979 84.4201C207.632 82.343 196.91 83.8549 194.269 94.42" stroke="#F32929" stroke-width="10" stroke-linecap="round"/>
<path d="M232.96 79.28C232.96 89.4683 237.863 95.7322 239.595 105.261C240.361 109.474 243.053 123.769 243.053 122.177C243.053 111.846 237.404 83.1556 254.829 94.0461C262.291 98.7098 268.287 125.555 268.287 116.756C268.287 103.724 268.414 93.5535 271.745 81.8968C272.577 78.9816 282.413 93.9938 283.053 94.7938C285.481 97.8292 288.265 110.655 288.473 114.607C288.644 117.845 287.158 123.201 290.155 124.7" stroke="#F32929" stroke-width="10" stroke-linecap="round"/>
<path d="M301.931 104.513C309.04 104.513 315.202 101.149 322.118 101.149C328.901 101.149 327.164 94.4057 327.164 89.3733C327.164 81.348 327.85 75.9155 318.753 75.9155C313.127 75.9155 311.741 84.4995 309.501 88.5322C302.933 100.355 303.613 113.898 303.613 127.223C303.613 131.881 311.825 138.158 316.23 138.158C324.124 138.158 320.414 128.916 325.482 126.382" stroke="#F32929" stroke-width="10" stroke-linecap="round"/>
</svg>
