<svg width="319" height="298" viewBox="0 0 319 298" fill="none" xmlns="http://www.w3.org/2000/svg">
<path d="M34.1683 67.534C34.4401 65.1015 45.1348 63.7606 47.0183 63.2762C55.0339 61.2148 63.0496 59.1534 71.0652 57.0919C84.4068 53.6608 97.4639 50.4703 109.639 43.7831C121.401 37.3224 133.877 32.3605 146.872 29.0186" stroke="#F32929" stroke-width="3" stroke-linecap="round"/>
<path d="M28.7351 68.9313C39.5482 110.977 50.8957 153.549 50.6733 197.198C50.5985 211.868 55.7646 226.109 55.9825 240.575C56.0806 247.089 59.0513 253.654 60.4855 259.961C61.9496 266.4 62.7957 274.353 63.0567 281.22" stroke="#F32929" stroke-width="3" stroke-linecap="round"/>
<path d="M146.872 29.0186C149.078 37.5974 157.724 43.8785 163.655 50.065C173.013 59.8269 181.78 70.0547 191.321 79.6437C202.831 91.2107 214.611 102.389 225.767 114.309C234.144 123.262 240.974 133.093 248.331 142.818C259.198 157.181 267.302 173.763 279.375 187.201C283.868 192.201 287.235 198.377 292.035 203.059C293.62 204.605 295.021 205.282 296.406 207.124C298.605 210.05 306.551 217.836 306.415 217.682" stroke="#F32929" stroke-width="3" stroke-linecap="round"/>
<path d="M58.8012 294.705C79.9014 289.279 102.997 284.963 121.945 273.701C130.106 268.849 139.515 264.793 148.106 260.724C149.905 259.873 154.219 259.873 152.602 257.768C147.147 250.664 143.959 240.629 140.813 232.366C135.681 218.887 131.026 207.265 123.014 195.273C115.774 184.434 108.158 173.966 101.593 162.658C93.4208 148.581 96.7816 128.256 87.1158 114.915C86.8142 114.498 99.1081 108.667 100.685 107.613C105.076 104.677 109.737 100.999 114.665 99.199C118.762 97.7031 123.595 94.1884 127.276 91.7197C131.594 88.8246 132.051 88.5071 133.463 93.2526C135.205 99.1062 140.894 105.019 144.502 109.899C148.529 115.346 150.68 121.881 154.763 127.275C162.337 137.28 169.069 147.879 174.558 159.196C179.105 168.571 187.428 178.538 194.134 186.513C198.801 192.065 201.386 198.583 205.479 204.352C208.65 208.819 212.282 213.634 214.885 218.4C216.042 220.52 220.714 227.435 223.554 227.501C225.96 227.557 229.156 234.566 230.172 236.76C232.044 240.799 251.351 230.525 253.687 229.548C262.223 225.975 270.373 223.138 279.336 220.833C287.402 218.759 295.939 218.47 304.044 216.385C307.742 215.434 313.606 211.857 314.795 216.48" stroke="#F32929" stroke-width="3" stroke-linecap="round"/>
<path d="M61.2456 281.686C62.4815 286.492 62.8362 291.625 64.0185 296.222" stroke="#F32929" stroke-width="3" stroke-linecap="round"/>
<path d="M27.8295 69.1642C29.9407 68.6212 36.1899 68.0501 36.655 65.9414" stroke="#F32929" stroke-width="3" stroke-linecap="round"/>
<path d="M54.5498 64.1986C56.2345 70.7494 53.1475 77.6183 50.947 83.975C49.5383 88.0443 44.7176 97.2259 40.174 98.3944" stroke="#F32929" stroke-width="3" stroke-linecap="round"/>
<path d="M120.64 43.3895C122.572 50.9048 139.187 54.6288 146.065 55.9125C152.561 57.1248 159.687 56.2215 166.001 54.5978" stroke="#F32929" stroke-width="3" stroke-linecap="round"/>
<path d="M84.043 73.7691C84.8323 79.3848 82.2353 86.3183 82.5755 92.2552C82.847 96.9917 85.5388 110.991 84.6921 106.325C82.0622 91.8306 86.1017 76.4287 86.7309 61.9056C86.8662 58.7822 86.5019 64.8726 86.329 65.5566C83.9071 75.1369 79.4666 84.6836 75.7457 93.8528C74.9969 95.698 68.9018 112.036 67.5751 107.338C66.1009 102.119 64.5579 96.7661 63.4879 91.4455C62.4617 86.3429 68.3122 82.1243 65.3328 76.3041C64.5245 74.7251 63.7108 73.5425 63.1876 71.508C61.9804 66.814 68.8157 67.2013 72.5593 66.2385C77.0561 65.082 81.578 64.8722 85.8189 63.7816C93.2232 61.8774 82.8967 75.2991 82.2015 76.2019C77.2508 82.63 68.6852 89.4699 66.204 97.4186C65.7382 98.9108 70.4223 88.9128 71.7034 86.6852C74.4358 81.9343 69.8582 86.5132 68.3463 87.8133C65.056 90.6429 64.0956 90.8418 63.0995 95.3577C61.8366 101.083 63.8515 94.7742 65.0034 92.7501C66.8469 89.5108 69.6191 84.6431 69.5039 80.844C69.4506 79.0844 69.7197 76.9409 71.2858 75.8851C71.8002 75.5383 74.3245 73.3155 73.3572 74.3463C70.3164 77.5871 68.6715 82.3225 66.1617 85.9924C63.1597 90.3823 60.5495 95.0006 57.2725 99.1861C56.4914 100.184 51.1962 105.211 52.2975 101.948C54.6908 94.8566 61.334 90.5783 59.3778 82.9717C58.6038 79.962 58.9961 84.7039 58.6214 86.0784C57.536 90.0593 55.5678 93.5263 53.9292 97.2396C52.5831 100.29 49.6267 106.447 46.325 107.296C43.7229 107.966 47.6238 112.539 48.6298 114.381C50.1648 117.193 50.6903 120.516 51.4838 123.602C53.2769 130.574 53.63 141.034 59.1574 145.932" stroke="#E3DD60" stroke-width="10" stroke-linecap="round"/>
<path d="M74.4106 103.886C75.6964 108.885 76.9822 113.885 78.2679 118.885C79.1279 122.229 79.9879 125.573 80.848 128.917C81.8079 132.649 81.6873 132.998 79.9424 129.15C76.8547 122.339 74.7209 107.529 67.7622 103.478C63.0385 100.727 58.8162 114.761 58.599 117.483C58.0949 123.801 59.3803 131.783 60.9531 137.899C64.9076 153.275 70.0622 168.783 72.4426 184.451C74.7355 199.544 78.6647 214.276 82.4645 229.052C82.993 231.106 84.2467 241.266 86.7037 241.781" stroke="#E3DD60" stroke-width="20" stroke-linecap="round"/>
<path d="M52.9782 129.413C56.8237 144.365 60.0154 159.18 64.4223 173.912C65.5173 177.572 68.0148 182.027 70.0286 185.284C72.5926 189.43 73.2417 196.412 74.317 201.125C76.0059 208.526 77.1924 216.059 79.108 223.508C80.7916 230.054 81.0178 239.422 87.8392 242.442" stroke="#E3DD60" stroke-width="20" stroke-linecap="round"/>
<path d="M65.149 172.984C67.823 183.381 66.7912 194.385 69.4458 204.707C70.8969 210.349 70.6161 217.005 71.4264 222.836C72.0155 227.076 72.974 235.826 76.2689 238.746" stroke="#E3DD60" stroke-width="20" stroke-linecap="round"/>
<path d="M54.5125 176.672C58.3436 191.569 61.1734 206.326 65 221.206C69.32 238.003 75.4924 254.496 79.7879 271.199" stroke="#E3DD60" stroke-width="20" stroke-linecap="round"/>
<path d="M63.1458 244.027C66.2964 256.278 71.8535 266.624 75.0585 279.087" stroke="#E3DD60" stroke-width="20" stroke-linecap="round"/>
<path d="M75.0585 279.087C79.888 277.845 84.7176 276.603 89.5471 275.361C93.1924 274.423 96.145 271.379 99.0411 269.107C102.32 266.535 104.919 262.565 108.994 260.882C112.631 259.379 116.94 258.785 120.753 257.805" stroke="#E3DD60" stroke-width="20" stroke-linecap="round"/>
<path d="M66.7347 111.578C72.6526 134.59 78.5706 157.601 84.4885 180.612C87.1725 191.049 93.402 200.256 96.0934 210.721C98.1788 218.83 101.143 226.603 103.219 234.674" stroke="#E3DD60" stroke-width="20" stroke-linecap="round"/>
<path d="M78.8492 139.915C81.0115 148.323 83.5491 156.497 86.1921 164.713C87.0654 167.427 89.9101 170.997 91.2364 173.899C93.4412 178.724 95.4147 183.555 97.2074 188.566C100.138 196.758 104.091 204.28 106.196 212.464C108.268 220.52 113.896 227.389 115.911 235.223" stroke="#E3DD60" stroke-width="20" stroke-linecap="round"/>
<path d="M92.1274 176.529C94.6524 186.348 96.4032 196.584 101.675 205.314C108.243 216.188 112.101 227.917 115.249 240.158" stroke="#E3DD60" stroke-width="20" stroke-linecap="round"/>
<path d="M95.0598 172.916C95.8513 175.994 96.5905 179.091 97.4355 182.154C98.2492 185.103 100.586 187.554 101.469 190.329C103.108 195.483 106.228 199.928 108.094 204.828C110.585 211.371 116.521 217.478 119.922 223.707C123.912 231.016 126.218 237.762 128.287 245.807C128.694 247.389 130.686 251.679 129.573 253.101C126.738 256.721 116.125 259.357 111.685 260.084C107.981 260.69 99.1634 261.486 95.7719 259.94C90.0198 257.318 90.9878 242.264 92.213 237.134C93.2692 232.713 93.5369 238.611 93.5966 240.22C93.7746 245.016 93.0621 249.825 93.9141 254.594C95.2704 262.183 100.478 252.687 104.258 250.186C105.29 249.503 111.748 246.762 111.849 250.087C111.962 253.795 99.276 258.958 96.7491 262.072" stroke="#E3DD60" stroke-width="20" stroke-linecap="round"/>
<path d="M76.3389 73.8442C82.9178 72.1523 93.8707 67.3579 100.343 69.5773" stroke="#E3DD60" stroke-width="20" stroke-linecap="round"/>
<path d="M80.8807 76.4886C87.1493 74.8765 92.6501 73.9123 98.9856 73.6857C101.5 73.5957 106.894 73.2466 108.521 75.0988" stroke="#E3DD60" stroke-width="20" stroke-linecap="round"/>
<path d="M81.8426 91.4906C89.053 89.6363 97.4949 88.6044 104.229 85.5217C109.609 83.0586 115.065 79.1342 120.766 77.668" stroke="#E3DD60" stroke-width="20" stroke-linecap="round"/>
<path d="M82.3446 104.705C86.6781 103.333 95.5598 99.5065 98.1479 95.6632C103.105 88.3014 117.108 85.3227 125.014 82.5059C129.078 81.0579 133.361 80.1475 137.54 79.0728C142.223 77.8684 151.17 90.5746 153.004 94.1574C155.833 99.6822 161.064 104.987 164.896 109.949C170.116 116.708 175.018 123.626 180.995 129.795C190.872 139.988 198.553 153.157 209.227 162.617" stroke="#E3DD60" stroke-width="20" stroke-linecap="round"/>
<path d="M141.894 92.2493C143.642 99.0446 152.576 100.623 156.899 105.546C160.117 109.212 164.539 111.524 167.836 115.123C170.634 118.178 172.531 122.184 174.447 125.813C176.71 130.1 179.514 133.976 181.92 138.188C186.447 146.113 193.222 150.607 199.914 156.434C206.339 162.029 212.49 167.221 218.08 173.683C222.304 178.566 232.001 194.861 230.397 188.624" stroke="#E3DD60" stroke-width="20" stroke-linecap="round"/>
<path d="M155.852 67.6917C159.47 81.7592 162.299 95.2871 169.648 107.986C175.733 118.501 183.968 128.162 191.285 137.897C193.848 141.306 197.081 144.084 200.344 146.846C205.032 150.812 208.292 155.943 212.492 160.295C218.667 166.692 222.793 175.328 229.464 181.24" stroke="#E3DD60" stroke-width="20" stroke-linecap="round"/>
<path d="M167.91 80.793C170.273 89.9807 171.721 100.191 175.568 108.899C181.515 122.363 192.501 132.63 202.157 143.467C207.084 148.996 213.558 153.91 218.104 159.593C222.082 164.565 230.564 170.502 232.166 176.732" stroke="#E3DD60" stroke-width="20" stroke-linecap="round"/>
<path d="M174.967 89.4622C179.587 107.425 182.559 124.044 196.244 137.575C202.728 143.986 209.44 149.932 216.228 156.051C222.671 161.859 228.126 168.92 233.635 175.56C235.976 178.382 239.087 183.802 242.169 185.597" stroke="#E3DD60" stroke-width="20" stroke-linecap="round"/>
<path d="M189.512 100.971C193.191 115.276 205.524 129.322 215.036 140.155C223.508 149.804 233.02 158.348 241.838 167.626C246.975 173.03 251.676 179.455 257.635 184.002C259.556 185.468 260.806 188.208 261.926 190.258C263.131 192.466 270.597 198.314 266.689 198.352" stroke="#E3DD60" stroke-width="20" stroke-linecap="round"/>
<path d="M166.057 69.8327C167.786 76.5532 170.494 81.4885 174.982 86.5992C176.729 88.5897 177.987 90.507 179.624 92.5535C182.016 95.5434 186.829 97.2972 189.735 99.9606C193.545 103.452 200.683 109.13 202.476 113.84C204.592 119.397 211.818 127.64 216.927 130.614C223.173 134.251 229.733 142.149 232.691 148.534C234.614 152.684 238.111 155.532 240.109 159.652C242.507 164.594 245.785 168.699 248.846 173.184C253.281 179.682 259.198 185.288 263.191 192.051C265.471 195.912 270.36 201.364 271.475 205.7" stroke="#E3DD60" stroke-width="20" stroke-linecap="round"/>
<path d="M173.944 119.271C174.748 120.742 179.961 121.381 181.548 122.558C184.97 125.095 186.233 125.304 188.495 128.925C193.08 136.267 195.475 144.689 200.212 151.963C203.255 156.635 207.841 158.304 211.504 162.084C220.716 171.592 227.038 182.131 233.387 193.574C236.065 198.401 239.778 203.523 243.886 207.288C245.349 208.629 253.826 218.949 251.107 212.844" stroke="#E3DD60" stroke-width="20" stroke-linecap="round"/>
<path d="M241.953 188.511C244.763 190.147 246.367 192.095 248.521 194.447C251.17 197.338 251.969 201.874 254.701 204.295" stroke="#E3DD60" stroke-width="20" stroke-linecap="round"/>
<path d="M269.922 214.677C265.447 215.828 259.068 216.369 255.663 219.297" stroke="#E3DD60" stroke-width="20" stroke-linecap="round"/>
<path d="M275.571 210.365L277.382 209.899" stroke="#E3DD60" stroke-width="20" stroke-linecap="round"/>
<path d="M94.2057 64.484L96.9223 63.7854" stroke="#E3DD60" stroke-width="20" stroke-linecap="round"/>
<path d="M139.783 72.7775C137.861 67.9331 128.8 67.143 124.684 64.7469C121.121 62.6723 115.855 58.8773 111.856 58.0385" stroke="#E3DD60" stroke-width="20" stroke-linecap="round"/>
<path d="M66.3825 147.047L72.8447 158.047L83.8727 155.211L76.8386 164.846L83.3009 175.846L72.4913 170.801L65.4573 180.435L65.8107 167.682L55.0011 162.636L66.0291 159.8L66.3825 147.047Z" fill="#78CB45"/>
<ellipse cx="88.0403" cy="203.501" rx="11.524" ry="11.8317" transform="rotate(-14.4225 88.0403 203.501)" fill="#DF41D9"/>
<path d="M38.7382 77.7958L39.6578 81.3716" stroke="#2DDDE8" stroke-width="10" stroke-linecap="round"/>
<path d="M37.5887 73.326C41.6256 72.2878 45.2922 70.6073 49.1307 69.4046C51.3606 68.7059 49.8368 68.9918 48.6907 69.5707C46.9835 70.4329 46.275 73.2302 45.7015 74.8401C44.1183 79.284 44.2248 90.681 39.4702 91.9038" stroke="#2DDDE8" stroke-width="10" stroke-linecap="round"/>
<path d="M132.871 42.15C136.624 41.185 144.058 40.2198 146.9 43.3077C148.926 45.5098 148.606 47.3776 144.62 46.5414C141.857 45.9617 139.088 45.5685 136.508 45.0272" stroke="#2DDDE8" stroke-width="10" stroke-linecap="round"/>
<path d="M123.586 43.5849C128.107 42.4223 136.012 41.6115 138.773 37.9849C139.975 36.4049 139.268 38.4145 138.375 39.358C136.857 40.9613 136.065 43.6236 134.001 44.6658C132.244 45.5534 130.128 45.4089 133.624 44.8686C136.885 44.3648 140.206 44.38 143.466 44.1379C146.309 43.9267 148 44.7093 150.485 45.9863C151.828 46.6765 157.766 52.0316 152.957 50.8042C150.416 50.1554 147.93 47.8083 145.131 48.5279C141.833 49.3761 138.217 47.344 134.926 46.387" stroke="#2DDDE8" stroke-width="10" stroke-linecap="round"/>
<path d="M171.753 100.412C172.343 102.707 178.357 121.591 181.186 119.991C183.016 118.956 183.316 114.686 183.68 112.873C184.153 110.508 184.547 108.421 183.934 106.037C183.369 103.841 183.382 102.13 185.298 100.903" stroke="#2DDDE8" stroke-width="10" stroke-linecap="round"/>
<path d="M198.52 141.88C200.812 141.291 202.745 140.938 204.679 139.597C207.21 137.842 208.227 136.072 211.251 135.294C213.2 134.793 213.787 133.418 214.402 135.808C214.988 138.086 215.574 140.364 216.16 142.642C216.738 144.892 216.681 147.279 217.279 149.603C217.936 152.157 218.04 151.983 215.955 151.269C208.726 148.789 203.545 145.063 195.852 144.553" stroke="#78CB45" stroke-width="10" stroke-linecap="round"/>
<path d="M231.957 198.853C229.549 200.07 227.375 206.497 225.958 208.859C225.348 209.876 222.73 212.986 225.394 212.463C228.801 211.795 232.712 212.667 236.087 213.172C237.244 213.345 240.838 214.417 242.004 213.859C242.77 213.492 243.131 210.629 243.293 210.031C244.27 206.433 245.409 202.941 246.64 199.419C246.879 198.734 248.12 196.021 247.24 196.247C243.608 197.182 239.17 198.016 235.574 197.261" stroke="#DF41D9" stroke-width="10" stroke-linecap="round"/>
<path d="M92.4512 245.991C93.7933 251.209 95.3558 257.03 95.4865 262.431C95.5094 263.375 95.8146 264.287 96.0479 265.194C96.22 265.863 96.2164 263.778 96.5741 263.182C98.0924 260.65 100.611 258.152 103.358 257.095C105.937 256.103 109.847 253.205 105.781 252.167C101.457 251.063 96.9904 249.549 92.6207 249.259" stroke="white" stroke-width="5" stroke-linecap="round"/>
<path d="M86.5071 256.792C90.3424 255.806 97.4722 255.551 100.737 257.916C101.604 258.545 105.083 263.802 104.707 262.341C103.904 259.216 102.577 256.309 101.699 253.253C100.995 250.805 100.887 247.386 99.5871 245.186C99.0847 244.335 94.7639 250.123 94.3232 250.661C93.3529 251.845 92.1178 254.397 91.1109 254.983C90.0072 255.624 87.8831 257.282 87.6157 258.494" stroke="white" stroke-width="5" stroke-linecap="round"/>
<path d="M114.76 61.4192C116.349 67.5988 113.233 73.7001 112.781 79.8116" stroke="white" stroke-width="10" stroke-linecap="round"/>
<path d="M102.663 69.1666C110.202 68.0016 119.383 72.6344 126.306 75.0085" stroke="white" stroke-width="10" stroke-linecap="round"/>
</svg>
