<svg width="294" height="266" viewBox="0 0 294 266" fill="none" xmlns="http://www.w3.org/2000/svg">
<path d="M37.6402 12.5734C38.583 10.0594 50.1801 11.5592 52.2896 11.5592C61.2671 11.5592 70.2445 11.5592 79.222 11.5592C94.1644 11.5592 108.743 11.7374 123.339 7.95322C137.441 4.29718 151.888 2.43152 166.442 2.43152" stroke="#F32929" stroke-width="3" stroke-linecap="round"/>
<path d="M31.5551 12.5734C31.5551 60.2743 31.9744 108.68 19.9482 155.067C15.9064 170.657 17.486 187.225 13.8067 202.678C12.1497 209.637 13.497 217.435 13.2997 224.539C13.0982 231.791 11.8384 240.486 10.2571 247.866" stroke="#F32929" stroke-width="3" stroke-linecap="round"/>
<path d="M166.442 2.43152C166.442 12.1641 173.828 21.214 178.387 29.4202C185.581 42.369 192.027 55.6517 199.46 68.4666C208.426 83.9249 217.781 99.0438 226.28 114.781C232.662 126.6 237.18 138.931 242.281 151.292C249.817 169.551 253.85 189.414 262.903 207.016C266.272 213.567 268.141 221.061 271.918 227.356C273.166 229.435 274.455 230.539 275.411 232.878C276.931 236.593 283.175 247.053 283.074 246.851" stroke="#F32929" stroke-width="3" stroke-linecap="round"/>
<path d="M2.14355 261.05C25.7756 261.05 51.2032 262.779 74.1511 255.979C84.0356 253.05 95.0152 251.309 105.14 249.331C107.26 248.916 111.791 250.097 110.662 247.415C106.85 238.362 106.213 226.812 105.14 217.158C103.391 201.411 101.64 187.77 96.4633 172.816C91.7852 159.301 86.6131 146.077 82.7717 132.248C77.9895 115.032 87.0112 94.3235 80.4616 77.4817C80.2572 76.9561 94.7476 74.115 96.6886 73.4249C102.095 71.5027 107.985 68.8639 113.648 68.2976C118.356 67.8268 124.383 65.4095 128.917 63.7901C134.235 61.8909 134.801 61.6781 135.002 67.1144C135.251 73.8199 139.63 81.6692 142.102 87.8489C144.861 94.7468 145.354 102.289 148.187 109.147C153.441 121.866 157.648 134.987 160.357 148.531C162.601 159.752 168.652 172.636 173.542 182.957C176.945 190.142 177.899 197.786 180.641 205.044C182.765 210.666 185.28 216.783 186.726 222.567C187.369 225.14 190.409 233.777 193.375 234.625C195.887 235.343 197.351 243.675 197.826 246.288C198.7 251.098 221.759 245.449 224.477 245.048C234.409 243.583 243.737 242.795 253.775 242.795C262.809 242.795 271.856 244.823 280.933 244.823C285.076 244.823 292.202 242.621 292.202 247.866" stroke="#F32929" stroke-width="3" stroke-linecap="round"/>
<path d="M8.22867 247.866C8.22867 253.318 7.21448 258.877 7.21448 264.093" stroke="#F32929" stroke-width="3" stroke-linecap="round"/>
<path d="M30.5409 12.5734C32.9054 12.5734 39.6245 13.6758 40.6828 11.5592" stroke="#F32929" stroke-width="3" stroke-linecap="round"/>
<path d="M59.9524 14.6018C59.9524 22.0336 54.8537 28.4982 50.8247 34.6602C48.2455 38.6049 40.7007 47.0559 35.6118 47.0559" stroke="#F32929" stroke-width="3" stroke-linecap="round"/>
<path d="M135.002 10.545C135.002 19.0711 151.45 27.5806 158.329 30.8288C164.825 33.8967 172.556 34.8856 179.627 34.8856" stroke="#F32929" stroke-width="3" stroke-linecap="round"/>
<path d="M88.3497 32.8572C87.6617 39.0489 83.0603 45.7163 81.8138 52.1268C80.8193 57.2413 79.8649 72.8748 80.2362 67.6777C81.3892 51.5346 89.7939 36.2507 94.3785 20.9687C95.3645 17.6821 93.3363 24.0632 92.9699 24.7437C87.8374 34.2754 80.5934 43.2191 74.2074 51.9578C72.9222 53.7164 62.1054 69.4334 61.9807 64.0717C61.8422 58.1142 61.6673 51.9963 61.9807 46.0417C62.2813 40.3311 69.567 37.4431 68.0095 30.4344C67.587 28.533 67.0517 27.0519 67.0517 24.7437C67.0517 19.4184 74.1276 21.7011 78.3205 21.7011C83.3568 21.7011 88.1638 22.7153 92.9135 22.7153C101.206 22.7153 86.7321 34.1716 85.7579 34.9419C78.8205 40.4273 67.9743 45.3617 63.2203 53.141C62.3278 54.6014 69.9496 45.2443 71.8973 43.2245C76.0512 38.9167 70.0054 42.5365 68.0659 43.5062C63.8449 45.6167 62.7822 45.5656 60.5158 50.0985C57.6422 55.8456 61.4634 49.6833 63.2203 47.8447C66.0321 44.9022 70.2594 40.481 71.1648 36.4069C71.5841 34.5199 72.4459 32.3126 74.3764 31.6177C75.0105 31.3894 78.2628 29.7149 76.9682 30.5471C72.8983 33.1635 69.8909 37.7523 66.2629 40.9707C61.9231 44.8205 57.9334 49.0206 53.3601 52.5776C52.2701 53.4254 45.3492 57.3262 47.3877 54.1552C51.8177 47.264 59.9524 44.5295 59.9524 35.8998C59.9524 32.4853 59.0835 37.6386 58.3184 38.9987C56.1026 42.9378 53.0984 46.0884 50.3739 49.5914C48.1355 52.4692 43.3664 58.212 39.6686 58.212C36.7541 58.212 39.6166 64.1457 40.1756 66.3818C41.0286 69.7937 40.6827 73.474 40.6827 76.9745C40.6827 84.8847 38.2279 96.1114 42.7111 102.836" stroke="#E3DD60" stroke-width="10" stroke-linecap="round"/>
<path d="M70.0943 62.2687C70.0943 67.9407 70.0943 73.6126 70.0943 79.2846C70.0943 83.0784 70.0943 86.8722 70.0943 90.666C70.0943 94.9007 69.8733 95.2389 69.0801 90.666C67.6764 82.574 69.4359 66.2306 63.2203 60.015C59.001 55.7957 50.774 69.5736 49.8104 72.4106C47.5739 78.996 46.7679 87.8411 46.7679 94.7791C46.7679 112.224 47.9932 130.137 46.2608 147.461C44.592 164.149 44.7395 180.901 44.7395 197.663C44.7395 199.994 43.3119 211.148 45.7537 212.369" stroke="#E3DD60" stroke-width="20" stroke-linecap="round"/>
<path d="M40.6828 83.5668C40.6828 100.531 40.0334 117.168 40.6828 134.051C40.8441 138.246 42.2641 143.67 43.5 147.686C45.0733 152.8 43.8688 160.407 43.7253 165.716C43.5 174.054 42.7111 182.395 42.7111 190.846C42.7111 198.272 40.4178 208.303 46.7679 213.383" stroke="#E3DD60" stroke-width="20" stroke-linecap="round"/>
<path d="M41.6969 133.262C41.6969 145.058 37.6402 156.485 37.6402 168.195C37.6402 174.596 35.547 181.602 34.823 188.028C34.2965 192.701 32.9393 202.275 35.6118 206.284" stroke="#E3DD60" stroke-width="20" stroke-linecap="round"/>
<path d="M29.5266 134.276C29.5266 151.176 28.5125 167.654 28.5125 184.535C28.5125 203.592 30.5408 222.831 30.5408 241.78" stroke="#E3DD60" stroke-width="20" stroke-linecap="round"/>
<path d="M20.3989 208.312C20.3989 222.211 23.4415 234.741 23.4415 248.88" stroke="#E3DD60" stroke-width="20" stroke-linecap="round"/>
<path d="M23.4415 248.88C28.8505 248.88 34.2596 248.88 39.6686 248.88C43.7514 248.88 47.6757 246.448 51.3318 244.823C55.4711 242.983 59.2739 239.471 64.0091 238.794C68.2365 238.19 72.9234 238.738 77.1936 238.738" stroke="#E3DD60" stroke-width="20" stroke-linecap="round"/>
<path d="M59.9524 68.3539C59.9524 94.4599 59.9524 120.566 59.9524 146.672C59.9524 158.512 64.0092 170.014 64.0092 181.887C64.0092 191.086 65.0233 200.17 65.0233 209.326" stroke="#E3DD60" stroke-width="20" stroke-linecap="round"/>
<path d="M65.0233 101.822C65.0233 111.361 65.4807 120.754 66.0375 130.219C66.2215 133.347 68.2456 137.924 68.8547 141.376C69.8673 147.113 70.6354 152.794 71.1648 158.617C72.0301 168.136 74.151 177.222 74.151 186.507C74.151 195.646 78.2078 204.496 78.2078 213.383" stroke="#E3DD60" stroke-width="20" stroke-linecap="round"/>
<path d="M69.0801 144.418C69.0801 155.557 68.1539 166.929 71.3338 177.661C75.295 191.03 76.1794 204.566 76.1794 218.454" stroke="#E3DD60" stroke-width="20" stroke-linecap="round"/>
<path d="M73.1369 141.376C73.1369 144.867 73.0767 148.365 73.1369 151.856C73.1948 155.217 74.9878 158.464 75.1653 161.659C75.4948 167.592 77.5717 173.176 78.2078 178.901C79.0572 186.545 83.6428 194.668 85.5325 202.227C87.7498 211.096 88.3497 218.905 88.3497 228.033C88.3497 229.828 89.2832 234.938 87.7299 236.146C83.7742 239.223 71.9131 239.123 67.0517 238.682C62.9976 238.313 53.5191 236.747 50.3739 234.174C45.0397 229.81 50.1238 214.055 52.7967 208.932C55.1008 204.516 53.7884 210.866 53.4165 212.594C52.3078 217.746 50.26 222.669 49.8668 227.976C49.2411 236.424 57.2775 227.743 61.9244 226.117C63.1928 225.673 70.7177 224.523 69.9253 228.089C69.0416 232.066 54.3204 234.088 50.8247 236.71" stroke="#E3DD60" stroke-width="20" stroke-linecap="round"/>
<path d="M80.2362 30.8288C87.6045 30.8288 100.406 28.7244 106.605 32.8572" stroke="#E3DD60" stroke-width="20" stroke-linecap="round"/>
<path d="M84.293 34.8856C91.3138 34.8856 97.3529 35.365 104.07 36.8577C106.736 37.4501 112.497 38.5548 113.704 40.9708" stroke="#E3DD60" stroke-width="20" stroke-linecap="round"/>
<path d="M81.2504 51.1127C89.3259 51.1127 98.473 52.3249 106.38 50.8873C112.697 49.7387 119.49 47.0559 125.875 47.0559" stroke="#E3DD60" stroke-width="20" stroke-linecap="round"/>
<path d="M78.2078 65.3113C83.1307 65.0378 93.4949 63.3964 97.252 60.015C104.449 53.5379 119.963 54.2001 129.03 53.3664C133.691 52.9378 138.436 53.141 143.116 53.141C148.361 53.141 154.327 69.1105 155.286 73.4248C156.765 80.0778 160.827 87.1543 163.512 93.4833C167.17 102.105 170.451 110.807 175.063 119.007C182.684 132.556 187.196 148.672 195.854 161.659" stroke="#E3DD60" stroke-width="20" stroke-linecap="round"/>
<path d="M144.13 68.3539C144.13 76.063 153.09 80.1874 156.3 86.6093C158.691 91.391 162.712 95.0611 165.203 99.7938C167.317 103.81 168.228 108.593 169.26 112.978C170.478 118.159 172.378 123.051 173.767 128.191C176.381 137.863 182.284 144.499 187.74 152.532C192.979 160.244 198.038 167.452 202.164 175.858C205.282 182.21 211.067 202.203 211.067 195.128" stroke="#E3DD60" stroke-width="20" stroke-linecap="round"/>
<path d="M165.428 46.0417C165.428 62.0012 164.745 77.1705 169.034 92.6945C172.586 105.549 178.627 118.084 183.684 130.445C185.455 134.774 188.1 138.614 190.783 142.446C194.636 147.95 196.674 154.302 199.911 160.082C204.669 168.579 206.67 178.898 212.081 187.014" stroke="#E3DD60" stroke-width="20" stroke-linecap="round"/>
<path d="M174.556 63.283C174.556 73.7063 173.318 84.9676 175.007 95.2863C177.617 111.241 186.384 125.173 193.6 139.347C197.282 146.579 202.755 153.579 205.996 160.871C208.831 167.25 216.138 175.889 216.138 182.957" stroke="#E3DD60" stroke-width="20" stroke-linecap="round"/>
<path d="M179.627 74.439C179.627 94.8174 178.259 113.316 188.98 131.459C194.06 140.056 199.504 148.22 204.982 156.588C210.181 164.532 214.004 173.539 217.997 182.112C219.694 185.756 221.498 192.375 224.251 195.128" stroke="#E3DD60" stroke-width="20" stroke-linecap="round"/>
<path d="M191.797 90.6661C191.797 106.895 200.959 125.217 208.024 139.347C214.317 151.933 222.001 163.628 228.759 175.914C232.695 183.071 235.898 191.194 240.929 197.663C242.551 199.749 243.124 203.006 243.746 205.495C244.416 208.174 250.679 216.44 246.563 215.411" stroke="#E3DD60" stroke-width="20" stroke-linecap="round"/>
<path d="M175.57 51.1127C175.57 58.7371 177.082 64.73 180.416 71.3965C181.714 73.9928 182.517 76.3771 183.684 79.0029C185.389 82.839 189.971 86.0225 192.304 89.6519C195.363 94.4102 201.328 102.406 201.939 107.907C202.66 114.4 208.025 125.149 212.588 129.712C218.168 135.292 222.925 145.492 224.308 153.095C225.206 158.037 228.111 162.025 229.097 166.956C230.28 172.871 232.615 178.136 234.618 183.746C237.522 191.875 242.223 199.46 244.591 207.749C245.944 212.482 249.606 219.621 249.606 224.539" stroke="#E3DD60" stroke-width="20" stroke-linecap="round"/>
<path d="M170.499 105.879C170.946 107.664 176.249 109.771 177.598 111.457C180.508 115.094 181.779 115.662 183.177 120.134C186.01 129.201 186.25 138.819 189.262 147.855C191.196 153.659 195.563 156.691 198.389 161.716C205.498 174.354 209.292 187.299 212.87 201.213C214.379 207.083 216.896 213.549 220.194 218.679C221.369 220.507 227.486 233.808 226.28 226.568" stroke="#E3DD60" stroke-width="20" stroke-linecap="round"/>
<path d="M223.237 198.17C225.747 200.68 226.906 203.191 228.533 206.284C230.534 210.085 230.149 215.131 232.365 218.454" stroke="#E3DD60" stroke-width="20" stroke-linecap="round"/>
<path d="M245.549 233.667C240.537 233.667 233.69 232.497 229.322 234.681" stroke="#E3DD60" stroke-width="20" stroke-linecap="round"/>
<path d="M252.649 230.624H254.677" stroke="#E3DD60" stroke-width="20" stroke-linecap="round"/>
<path d="M101.534 25.7579H104.577" stroke="#E3DD60" stroke-width="20" stroke-linecap="round"/>
<path d="M147.173 47.0559C146.463 41.3749 137.157 38.0544 133.481 34.3785C130.298 31.1957 125.792 25.7164 121.818 23.7295" stroke="#E3DD60" stroke-width="20" stroke-linecap="round"/>
<path d="M50 106L53.8167 119.474H66.168L56.1756 127.802L59.9923 141.276L50 132.948L40.0076 141.276L43.8244 127.802L33.832 119.474H46.1833L50 106Z" fill="#78CB45"/>
<ellipse cx="57.5" cy="172" rx="12.5" ry="13" fill="#DF41D9"/>
<path d="M39.6686 24.7437V28.8005" stroke="#2DDDE8" stroke-width="10" stroke-linecap="round"/>
<path d="M39.6685 19.6727C44.1899 19.6727 48.4957 18.8879 52.853 18.6585C55.3843 18.5253 53.7063 18.4126 52.3459 18.7149C50.3195 19.1652 48.8195 21.9479 47.7821 23.5041C44.9184 27.7996 41.9511 39.9565 36.626 39.9565" stroke="#2DDDE8" stroke-width="10" stroke-linecap="round"/>
<path d="M148.187 12.5734C152.39 12.5734 160.46 13.5807 162.611 17.6444C164.145 20.5423 163.304 22.4422 159.343 20.4616C156.597 19.0886 153.794 17.9122 151.23 16.6302" stroke="#2DDDE8" stroke-width="10" stroke-linecap="round"/>
<path d="M138.045 11.5592C143.108 11.5592 151.632 12.8599 155.512 9.7562C157.202 8.40404 155.916 10.349 154.723 11.1085C152.695 12.3991 151.143 15.0153 148.694 15.5596C146.608 16.0232 144.425 15.2904 148.243 15.6723C151.805 16.0285 155.289 16.9534 158.78 17.588C161.824 18.1415 163.388 19.4368 165.654 21.4757C166.878 22.5778 171.669 29.9012 166.949 27.2792C164.455 25.8934 162.477 22.7153 159.343 22.7153C155.65 22.7153 152.399 19.5632 149.201 17.6443" stroke="#2DDDE8" stroke-width="10" stroke-linecap="round"/>
<path d="M173.292 85.2115C173.292 87.8145 174.508 109.556 177.912 108.627C180.114 108.027 181.583 103.565 182.455 101.736C183.591 99.3485 184.569 97.2356 184.569 94.5308C184.569 92.0387 185.044 90.2217 187.388 89.4404" stroke="#2DDDE8" stroke-width="10" stroke-linecap="round"/>
<path d="M190.207 136.663C192.774 136.663 194.9 136.817 197.295 135.919C200.428 134.744 201.974 133.139 205.361 133.139C207.544 133.139 208.533 131.836 208.533 134.549C208.533 137.133 208.533 139.717 208.533 142.302C208.533 144.854 207.828 147.378 207.828 150.015C207.828 152.912 207.984 152.756 205.987 151.425C199.063 146.808 194.626 141.425 186.683 138.777" stroke="#78CB45" stroke-width="10" stroke-linecap="round"/>
<path d="M209.942 206.44C207.083 207.075 203.063 213.319 200.936 215.446C200.021 216.361 196.43 218.953 199.37 219.126C203.13 219.347 207.003 221.346 210.412 222.807C211.58 223.308 215.066 225.431 216.442 225.156C217.346 224.976 218.499 222.028 218.831 221.436C220.829 217.875 222.969 214.47 225.213 211.06C225.65 210.397 227.686 207.849 226.701 207.849C222.632 207.849 217.746 207.522 214.171 205.735" stroke="#DF41D9" stroke-width="10" stroke-linecap="round"/>
<path d="M50.6542 218.421C50.6542 224.342 50.7231 230.963 49.4012 236.747C49.1702 237.757 49.2446 238.811 49.2446 239.84C49.2446 240.599 49.804 238.38 50.3409 237.843C52.6201 235.564 55.9404 233.596 59.112 233.222C62.0895 232.872 66.9801 230.859 62.9884 228.641C58.7446 226.284 54.4615 223.45 49.9494 221.945" stroke="white" stroke-width="5" stroke-linecap="round"/>
<path d="M41.4916 228.289C45.7872 228.289 53.3459 229.969 56.1361 233.379C56.8774 234.285 59.112 240.831 59.112 239.174C59.112 235.629 58.5042 232.172 58.4072 228.68C58.3295 225.883 59.1386 222.215 58.368 219.518C58.0701 218.475 51.9673 223.451 51.359 223.903C50.0197 224.898 48.0327 227.276 46.8169 227.623C45.4841 228.004 42.8049 229.186 42.1965 230.403" stroke="white" stroke-width="5" stroke-linecap="round"/>
<path d="M123.955 28.1215C123.955 35.1323 119.033 40.772 116.907 47.1515" stroke="white" stroke-width="10" stroke-linecap="round"/>
<path d="M109.154 33.0552C117.388 33.8786 125.781 41.3211 132.413 45.7419" stroke="white" stroke-width="10" stroke-linecap="round"/>
</svg>
