<svg width="337" height="335" viewBox="0 0 337 335" fill="none" xmlns="http://www.w3.org/2000/svg">
<path d="M126.399 22.1195C128.159 20.3095 137.584 25.9741 139.402 26.7695C147.135 30.1544 154.869 33.5393 162.603 36.9243C175.475 42.5583 187.967 48.2086 201.967 50.4526C215.494 52.6207 228.643 56.461 241.181 61.9486" stroke="#F32929" stroke-width="3" stroke-linecap="round"/>
<path d="M121.157 19.825C103.174 60.9112 85.287 102.763 57.4395 138.183C48.0805 150.087 43.1953 164.953 34.2001 176.875C30.1491 182.245 28.3698 189.47 25.5217 195.514C22.6142 201.685 18.251 208.699 14.1068 214.459" stroke="#F32929" stroke-width="3" stroke-linecap="round"/>
<path d="M241.181 61.9485C237.511 70.3315 240.462 80.9113 241.296 89.6985C242.612 103.564 243.157 117.435 244.729 131.276C246.625 147.971 248.985 164.521 250.373 181.28C251.416 193.867 250.659 206.191 250.394 218.761C250.002 237.329 245.988 255.959 247.151 274.534C247.584 281.446 246.368 288.605 247.249 295.452C247.54 297.713 248.234 299.15 248.177 301.525C248.086 305.298 249.521 316.662 249.51 316.45" stroke="#F32929" stroke-width="3" stroke-linecap="round"/>
<path d="M2.14709 222.756C22.5052 231.666 43.7584 242.742 66.0904 245.538C75.7097 246.743 85.8246 249.382 95.2927 251.496C97.2749 251.938 100.733 254.664 100.772 251.928C100.901 242.693 104.706 232.504 107.421 223.785C111.851 209.562 115.485 197.152 116.663 182.32C117.728 168.915 118.258 155.575 120.162 142.215C122.533 125.584 138.112 111.148 138.819 94.1725C138.841 93.6428 152.395 96.6592 154.327 96.7966C159.709 97.1794 165.778 97.1275 170.87 98.7749C175.103 100.144 181.206 100.335 185.723 100.65C191.02 101.019 191.588 101.049 189.712 105.807C187.398 111.677 188.211 120.089 188.011 126.343C187.787 133.325 185.369 140.008 185.224 146.982C184.954 159.919 183.633 172.807 180.86 185.494C178.564 196.005 178.919 209.384 179.24 220.118C179.463 227.589 177.403 234.533 177.029 241.818C176.739 247.461 176.6 253.678 175.665 259.206C175.25 261.664 174.612 270.25 176.847 272.098C178.741 273.663 176.861 281.393 176.285 283.822C175.225 288.295 197.218 292.124 199.711 292.803C208.82 295.286 217.153 298.124 225.8 301.909C233.582 305.315 240.611 310.473 248.431 313.896C251.999 315.458 258.968 316.248 256.991 320.765" stroke="#F32929" stroke-width="3" stroke-linecap="round"/>
<path d="M12.3595 213.694C10.3042 218.39 7.33469 222.796 5.36839 227.288" stroke="#F32929" stroke-width="3" stroke-linecap="round"/>
<path d="M120.284 19.4426C122.32 20.3342 127.693 23.8171 129.403 22.3931" stroke="#F32929" stroke-width="3" stroke-linecap="round"/>
<path d="M144.856 32.2793C142.054 38.6805 135.225 42.3262 129.431 46.1146C125.722 48.5398 116.036 52.9741 111.652 51.0554" stroke="#F32929" stroke-width="3" stroke-linecap="round"/>
<path d="M211.038 57.0826C207.823 64.4264 218.785 77.9575 223.486 83.3488C227.926 88.4407 234.212 92.2073 240.304 94.8734" stroke="#F32929" stroke-width="3" stroke-linecap="round"/>
<path d="M162.437 58.7104C159.51 63.7841 153.032 67.792 149.542 72.8436C146.757 76.8738 140.041 89.9795 142.32 85.6432C149.399 72.1734 162.401 62.1778 172.112 50.7436C174.201 48.2845 170.048 53.0161 169.476 53.464C161.461 59.7388 151.849 64.7109 143.053 69.83C141.283 70.8601 126.039 80.3192 127.953 75.654C130.08 70.4704 132.236 65.1349 134.75 60.1242C137.162 55.3188 144.527 55.5784 145.828 48.9544C146.181 47.1573 146.278 45.6797 147.148 43.6916C149.156 39.1048 154.391 43.739 158.003 45.3199C162.341 47.2188 166.1 49.9048 170.192 51.6957C177.336 54.8225 160.548 59.2326 159.418 59.5288C151.374 61.6378 140.17 61.7984 133.142 66.7065C131.823 67.6279 141.916 62.442 144.355 61.4367C149.558 59.2925 142.985 60.1308 140.948 60.2347C136.517 60.4611 135.62 60.0163 131.959 63.0661C127.317 66.9328 132.932 63.0658 135.139 62.1446C138.67 60.6703 143.979 58.4561 146.294 55.2883C147.367 53.8211 148.942 52.2449 150.867 52.3741C151.499 52.4166 154.932 52.2006 153.503 52.4293C149.01 53.1483 144.69 55.9669 140.351 57.371C135.161 59.0507 130.141 61.164 124.86 62.5034C123.602 62.8226 116.169 63.573 119.12 61.6104C125.535 57.3451 133.573 58.0569 136.827 50.6239C138.114 47.683 135.422 51.794 134.251 52.677C130.857 55.2344 127.081 56.8154 123.413 58.8053C120.4 60.4402 114.127 63.5883 110.941 62.1941C108.431 61.0952 108.66 67.2854 108.298 69.4222C107.747 72.6826 106.061 75.7221 104.742 78.7372C101.76 85.5505 95.4125 94.2948 96.7394 101.778" stroke="#E3DD60" stroke-width="10" stroke-linecap="round"/>
<path d="M135.623 77.1603C133.484 82.0457 131.346 86.9311 129.208 91.8165C127.778 95.0842 126.347 98.352 124.917 101.62C123.321 105.267 123.003 105.475 124.043 101.237C125.885 93.7382 133.562 80.3245 130.551 72.6272C128.506 67.4021 116.225 76.1675 114.325 78.2478C109.916 83.0767 105.887 90.3914 103.272 96.3673C96.6951 111.393 90.9977 127.284 82.9744 141.552C75.2455 155.297 69.0572 169.782 62.738 184.219C61.8592 186.227 56.4245 195.296 58.0678 197.268" stroke="#E3DD60" stroke-width="20" stroke-linecap="round"/>
<path d="M102.257 84.4153C95.8613 99.0268 89.0298 113.112 83.2245 127.899C81.7821 131.573 80.9606 136.78 80.511 140.705C79.9387 145.703 76.033 151.802 73.908 156.32C70.5706 163.417 66.7465 170.304 63.5608 177.582C60.761 183.979 55.0039 191.754 58.5591 198.524" stroke="#E3DD60" stroke-width="20" stroke-linecap="round"/>
<path d="M84.3956 127.602C79.9487 137.762 72.146 146.075 67.7313 156.161C65.3182 161.675 60.8739 166.92 57.8276 172.182C55.6124 176.008 50.834 183.743 51.625 188.203" stroke="#E3DD60" stroke-width="20" stroke-linecap="round"/>
<path d="M73.5291 123.886C67.1579 138.443 60.0722 152.253 53.7083 166.793C46.524 183.208 41.0183 200.544 33.8747 216.865" stroke="#E3DD60" stroke-width="20" stroke-linecap="round"/>
<path d="M37.755 184.214C32.5154 196.185 30.4126 208.125 25.0824 220.303" stroke="#E3DD60" stroke-width="20" stroke-linecap="round"/>
<path d="M25.0824 220.303C29.7421 222.343 34.4017 224.382 39.0614 226.422C42.5785 227.961 46.8759 227.346 50.6381 227.325C54.8975 227.301 59.4977 225.71 63.8319 226.912C67.7013 227.986 71.5324 230.225 75.2111 231.835" stroke="#E3DD60" stroke-width="20" stroke-linecap="round"/>
<path d="M124.592 78.5776C114.75 101.063 104.908 123.549 95.0665 146.035C90.6028 156.234 89.7614 167.67 85.2855 177.896C81.8174 185.82 79.2668 194.026 75.8148 201.913" stroke="#E3DD60" stroke-width="20" stroke-linecap="round"/>
<path d="M116.343 109.317C112.747 117.533 109.6 125.795 106.511 134.159C105.49 136.922 105.509 141.627 104.732 144.83C103.441 150.154 101.962 155.336 100.222 160.551C97.3794 169.076 95.7808 177.703 92.2806 185.7C88.8352 193.572 88.9936 202.724 85.6433 210.379" stroke="#E3DD60" stroke-width="20" stroke-linecap="round"/>
<path d="M103.779 147.535C99.5801 157.129 94.4951 166.575 93.1885 177.018C91.5609 190.027 87.2199 202.019 81.9842 213.982" stroke="#E3DD60" stroke-width="20" stroke-linecap="round"/>
<path d="M108.421 146.444C107.105 149.452 105.734 152.442 104.47 155.471C103.253 158.388 103.573 161.861 102.522 164.68C100.569 169.915 100.253 175.507 98.6428 180.678C96.4926 187.583 97.3807 196.308 96.159 203.531C94.7255 212.007 92.2983 218.959 88.8574 226.821C88.1807 228.367 87.0583 233.12 85.2648 233.575C80.6972 234.734 70.5168 230.176 66.4955 227.962C63.1419 226.116 55.5668 221.194 53.8275 217.792C50.8776 212.021 61.1968 200.368 65.4307 196.963C69.0803 194.029 65.5559 199.003 64.5839 200.352C61.6866 204.371 58.0666 207.839 55.7272 212.262C52.0036 219.302 62.199 214.856 66.8153 215.207C68.0753 215.303 74.9913 217.149 72.9642 219.922C70.7038 223.014 57.2598 219.205 53.26 220.146" stroke="#E3DD60" stroke-width="20" stroke-linecap="round"/>
<path d="M156.212 53.9041C162.559 56.6823 174.381 59.6964 178.163 65.5935" stroke="#E3DD60" stroke-width="20" stroke-linecap="round"/>
<path d="M158.177 58.9279C164.225 61.5751 169.247 64.2651 174.471 68.0833C176.544 69.5988 181.09 72.7224 181.22 75.2588" stroke="#E3DD60" stroke-width="20" stroke-linecap="round"/>
<path d="M149.439 71.7576C156.396 74.8024 163.819 79.2955 171.172 81.0384C177.047 82.4311 183.91 82.6814 189.41 85.0889" stroke="#E3DD60" stroke-width="20" stroke-linecap="round"/>
<path d="M141.465 82.8401C145.809 84.4607 155.356 86.9547 159.868 85.4588C168.509 82.5934 181.624 89.0134 189.749 91.714C193.926 93.1021 197.937 95.0662 201.969 96.8309C206.487 98.8085 205.607 114.813 204.806 118.891C203.572 125.179 204.404 132.806 204.331 139.269C204.232 148.074 203.777 156.807 204.659 165.609C206.117 180.153 203.927 195.735 206.49 210.186" stroke="#E3DD60" stroke-width="20" stroke-linecap="round"/>
<path d="M197.108 110.317C194.201 116.957 200.365 123.887 200.71 130.629C200.967 135.649 203.047 140.327 203.408 145.342C203.715 149.599 202.697 154.061 201.933 158.228C201.03 163.15 200.822 168.079 200.08 173.031C198.686 182.347 201.27 190.289 202.942 199.265C204.547 207.882 206.188 215.998 206.574 224.795C206.865 231.441 204.311 250.843 206.978 244.749" stroke="#E3DD60" stroke-width="20" stroke-linecap="round"/>
<path d="M223.866 99.1289C217.85 112.875 211.542 125.683 209.385 140.672C207.599 153.083 208.077 166.157 207.773 178.711C207.667 183.107 208.499 187.413 209.365 191.725C210.609 197.918 209.97 204.158 210.58 210.356C211.475 219.47 209.309 229.112 210.91 238.143" stroke="#E3DD60" stroke-width="20" stroke-linecap="round"/>
<path d="M225.23 117.421C221.3 126.399 215.988 135.632 213.553 145.156C209.787 159.883 212.087 175.188 212.96 190.118C213.405 197.735 215.481 205.828 215.524 213.33C215.562 219.894 218.599 230.09 215.935 236.178" stroke="#E3DD60" stroke-width="20" stroke-linecap="round"/>
<path d="M225.392 128.942C217.71 146.494 209.558 161.912 211.954 181.581C213.089 190.901 214.701 199.986 216.265 209.259C217.749 218.062 217.647 227.261 217.855 236.151C217.943 239.929 217.002 246.311 218.336 249.72" stroke="#E3DD60" stroke-width="20" stroke-linecap="round"/>
<path d="M229.759 147.508C223.641 161.486 224.626 180.722 225.386 195.556C226.062 208.77 228.273 221.74 229.462 234.871C230.155 242.518 229.852 250.723 231.747 258.192C232.358 260.6 231.624 263.622 231.222 266C230.789 268.56 233.068 278.042 229.91 275.604" stroke="#E3DD60" stroke-width="20" stroke-linecap="round"/>
<path d="M230.691 107.321C227.817 113.888 226.861 119.62 227.219 126.619C227.358 129.344 227.151 131.701 227.167 134.402C227.189 138.349 229.937 142.819 230.578 146.825C231.42 152.077 233.544 161.213 231.996 166.182C230.17 172.047 230.739 183.327 232.95 188.978C235.653 195.888 235.906 206.467 234.23 213.537C233.141 218.133 234.14 222.663 233.131 227.282C231.92 232.823 231.947 238.238 231.558 243.826C230.994 251.922 232.185 260.227 231.1 268.26C230.481 272.846 230.944 280.377 229.09 284.613" stroke="#E3DD60" stroke-width="20" stroke-linecap="round"/>
<path d="M205.677 152.58C205.388 154.287 209.163 158.101 209.69 160.062C210.825 164.292 211.706 165.26 211.224 169.639C210.246 178.517 206.827 186.891 206.015 195.81C205.494 201.539 208.112 205.797 208.653 211.19C210.013 224.756 208.4 237.337 206.237 250.67C205.325 256.295 205.055 262.814 205.962 268.476C206.286 270.493 206.541 284.256 208.231 277.565" stroke="#E3DD60" stroke-width="20" stroke-linecap="round"/>
<path d="M216.315 251.958C217.531 255.066 217.583 257.666 217.819 260.944C218.11 264.972 215.876 269.173 216.532 272.871" stroke="#E3DD60" stroke-width="20" stroke-linecap="round"/>
<path d="M222.154 290.945C217.837 289.056 212.38 285.466 207.793 285.7" stroke="#E3DD60" stroke-width="20" stroke-linecap="round"/>
<path d="M229.417 291.001L231.165 291.766" stroke="#E3DD60" stroke-width="20" stroke-linecap="round"/>
<path d="M176.471 57.5667L179.092 58.7139" stroke="#E3DD60" stroke-width="20" stroke-linecap="round"/>
<path d="M207.758 93.1192C209.288 87.9583 202.523 81.5897 200.742 77.0375C199.2 73.096 197.384 66.6773 194.709 63.4676" stroke="#E3DD60" stroke-width="20" stroke-linecap="round"/>
<path d="M101.826 107.251L100.034 120.295L110.674 124.952L98.9268 128.358L97.1351 141.402L91.6665 130.462L79.9191 133.867L88.2867 123.701L82.8181 112.76L93.4581 117.417L101.826 107.251Z" fill="#78CB45"/>
<ellipse cx="83.4053" cy="166.926" rx="11.7545" ry="12.2228" transform="rotate(23.6383 83.4053 166.926)" fill="#DF41D9"/>
<path d="M123.559 33.3669L122.029 36.8611" stroke="#2DDDE8" stroke-width="10" stroke-linecap="round"/>
<path d="M125.47 28.9991C129.365 30.7039 133.37 31.6514 137.21 33.0968C139.441 33.9364 138.038 33.2066 136.752 32.9541C134.837 32.5779 132.496 34.4092 131.015 35.3584C126.929 37.9785 119.79 47.3308 115.202 45.323" stroke="#2DDDE8" stroke-width="10" stroke-linecap="round"/>
<path d="M221.631 63.8008C225.251 65.3855 231.824 69.2959 232.145 73.6072C232.374 76.6817 230.933 78.001 228.268 74.8015C226.42 72.5836 224.448 70.5133 222.723 68.4422" stroke="#2DDDE8" stroke-width="10" stroke-linecap="round"/>
<path d="M213.276 59.1034C217.638 61.0123 224.491 65.3466 229.003 64.1361C230.969 63.6088 229.128 64.7993 227.814 65.0035C225.58 65.3504 223.257 67.0189 220.942 66.5642C218.97 66.177 217.365 64.7226 220.511 66.4913C223.445 68.141 226.098 70.2514 228.866 72.1141C231.279 73.7386 232.139 75.4441 233.322 78.0545C233.961 79.4654 235.328 87.5798 232.25 83.5418C230.624 81.4077 230.118 77.9245 227.418 76.7428C224.236 75.3502 222.625 71.4097 220.593 68.5511" stroke="#2DDDE8" stroke-width="10" stroke-linecap="round"/>
<path d="M215.874 135.832C214.893 138.074 207.744 157.259 211.027 157.743C213.15 158.055 216.098 154.766 217.538 153.519C219.417 151.892 221.056 150.441 222.075 148.111C223.015 145.964 224.109 144.579 226.423 144.789" stroke="#2DDDE8" stroke-width="10" stroke-linecap="round"/>
<path d="M211.049 186.527C213.261 187.494 215.034 188.429 217.435 188.558C220.577 188.727 222.514 187.928 225.432 189.205C227.313 190.028 228.655 189.279 227.633 191.615C226.659 193.841 225.684 196.067 224.71 198.293C223.748 200.491 222.189 202.4 221.195 204.671C220.103 207.166 220.296 207.091 219.078 205.191C214.853 198.604 213.061 192.294 207.216 187.019" stroke="#78CB45" stroke-width="10" stroke-linecap="round"/>
<path d="M201.745 254.068C199.042 253.537 193.225 257.4 190.591 258.43C189.458 258.873 185.387 259.752 187.855 261.009C191.01 262.617 193.593 265.799 195.979 268.343C196.797 269.215 198.999 272.358 200.288 272.64C201.135 272.825 203.24 270.721 203.748 270.337C206.812 268.022 209.939 265.897 213.158 263.806C213.785 263.399 216.499 261.972 215.651 261.601C212.146 260.067 208.059 257.943 205.654 255.056" stroke="#DF41D9" stroke-width="10" stroke-linecap="round"/>
<path d="M60.0076 204.329C57.7756 209.429 55.3389 215.158 52.0198 219.641C51.4399 220.424 51.1066 221.36 50.7187 222.246C50.4324 222.9 51.751 221.2 52.416 220.939C55.2386 219.836 58.841 219.392 61.7138 220.267C64.4108 221.088 69.3829 221.198 66.7803 217.782C64.0132 214.152 61.3919 210.096 58.0719 207.099" stroke="white" stroke-width="5" stroke-linecap="round"/>
<path d="M48.3945 209.374C52.0949 210.993 57.9731 215.29 59.0911 219.28C59.3882 220.34 58.8453 226.821 59.47 225.393C60.8066 222.339 61.5861 219.133 62.819 216.089C63.8068 213.65 65.8865 210.796 66.2394 208.182C66.3759 207.171 59.2426 209.157 58.5482 209.317C57.0193 209.669 54.4113 210.967 53.233 210.808C51.9412 210.634 49.1875 210.642 48.2046 211.461" stroke="white" stroke-width="5" stroke-linecap="round"/>
<path d="M194.895 68.0562C192.252 74.0948 185.886 77.0968 181.649 81.7898" stroke="white" stroke-width="10" stroke-linecap="round"/>
<path d="M180.284 66.7251C187.067 70.539 191.492 80.1142 195.538 86.4222" stroke="white" stroke-width="10" stroke-linecap="round"/>
</svg>
